HIERARCHY
ROOT Hips
{
    OFFSET   0.000000   0.000000   0.000000
    CHANNELS 6 Xposition Yposition Zposition Zrotation Xrotation Yrotation
    JOINT Chest
    {
        OFFSET   0.000000   8.007230   0.000000
        CHANNELS 3 Zrotation Xrotation Yrotation
        JOINT Chest2
        {
            OFFSET   0.000000  22.077100   0.000000
            CHANNELS 3 Zrotation Xrotation Yrotation
            JOINT Neck
            {
                OFFSET   0.000000  23.254800  -0.000021
                CHANNELS 3 Zrotation Xrotation Yrotation
                JOINT Head
                {
                    OFFSET   0.000000  14.370000   1.956610
                    CHANNELS 3 Zrotation Xrotation Yrotation
                    End Site
                    {
                        OFFSET   0.000000  19.566000   0.000000
                    }
                }
            }
            JOINT LeftCollar
            {
                OFFSET   3.911900  19.017000  -0.467063
                CHANNELS 3 Zrotation Xrotation Yrotation
                JOINT LeftShoulder
                {
                    OFFSET  10.383700   0.000000   0.000000
                    CHANNELS 3 Zrotation Xrotation Yrotation
                    JOINT LeftElbow
                    {
                        OFFSET  26.662100   0.001529   0.000325
                        CHANNELS 3 Zrotation Xrotation Yrotation
                        JOINT LeftWrist
                        {
                            OFFSET  28.869000  -0.000011  -0.000096
                            CHANNELS 3 Zrotation Xrotation Yrotation
                            JOINT LeftFinger0
                            {
                                OFFSET   2.044650  -2.323460   3.252850
                                CHANNELS 3 Zrotation Xrotation Yrotation
                                JOINT LeftFinger01
                                {
                                    OFFSET   3.088130   0.000000   0.000000
                                    CHANNELS 3 Zrotation Xrotation Yrotation
                                    JOINT LeftFinger02
                                    {
                                        OFFSET   2.639460   0.000000   0.000000
                                        CHANNELS 3 Zrotation Xrotation Yrotation
                                        End Site
                                        {
                                            OFFSET   2.582190   0.000000   0.000000
                                        }
                                    }
                                }
                            }
                            JOINT LeftFinger1
                            {
                                OFFSET   8.364480   0.000000   3.252850
                                CHANNELS 3 Zrotation Xrotation Yrotation
                                JOINT LeftFinger11
                                {
                                    OFFSET   4.646930   0.000000   0.000000
                                    CHANNELS 3 Zrotation Xrotation Yrotation
                                    JOINT LeftFinger12
                                    {
                                        OFFSET   2.323460   0.000000   0.000000
                                        CHANNELS 3 Zrotation Xrotation Yrotation
                                        End Site
                                        {
                                            OFFSET   2.273050   0.000000   0.000000
                                        }
                                    }
                                }
                            }
                            JOINT LeftFinger2
                            {
                                OFFSET   8.364480   0.000016   1.078090
                                CHANNELS 3 Zrotation Xrotation Yrotation
                                JOINT LeftFinger21
                                {
                                    OFFSET   5.111620   0.000000   0.000000
                                    CHANNELS 3 Zrotation Xrotation Yrotation
                                    JOINT LeftFinger22
                                    {
                                        OFFSET   2.788160   0.000017   0.000000
                                        CHANNELS 3 Zrotation Xrotation Yrotation
                                        End Site
                                        {
                                            OFFSET   2.727660   0.000000   0.000000
                                        }
                                    }
                                }
                            }
                            JOINT LeftFinger3
                            {
                                OFFSET   7.899780   0.000015  -1.078090
                                CHANNELS 3 Zrotation Xrotation Yrotation
                                JOINT LeftFinger31
                                {
                                    OFFSET   4.646920   0.000000   0.000000
                                    CHANNELS 3 Zrotation Xrotation Yrotation
                                    JOINT LeftFinger32
                                    {
                                        OFFSET   2.323470   0.000000   0.000000
                                        CHANNELS 3 Zrotation Xrotation Yrotation
                                        End Site
                                        {
                                            OFFSET   2.273050   0.000000   0.000000
                                        }
                                    }
                                }
                            }
                            JOINT LeftFinger4
                            {
                                OFFSET   7.435090   0.000000  -3.252850
                                CHANNELS 3 Zrotation Xrotation Yrotation
                                JOINT LeftFinger41
                                {
                                    OFFSET   3.717550   0.000000   0.000000
                                    CHANNELS 3 Zrotation Xrotation Yrotation
                                    JOINT LeftFinger42
                                    {
                                        OFFSET   1.858760   0.000000   0.000000
                                        CHANNELS 3 Zrotation Xrotation Yrotation
                                        End Site
                                        {
                                            OFFSET   1.818440   0.000000   0.000000
                                        }
                                    }
                                }
                            }
                        }
                    }
                }
            }
            JOINT RightCollar
            {
                OFFSET  -3.911900  19.017000  -0.467062
                CHANNELS 3 Zrotation Xrotation Yrotation
                JOINT RightShoulder
                {
                    OFFSET -10.383700   0.000015   0.000000
                    CHANNELS 3 Zrotation Xrotation Yrotation
                    JOINT RightElbow
                    {
                        OFFSET -26.662100   0.001341   0.000385
                        CHANNELS 3 Zrotation Xrotation Yrotation
                        JOINT RightWrist
                        {
                            OFFSET -28.869000   0.000025  -0.000080
                            CHANNELS 3 Zrotation Xrotation Yrotation
                            JOINT RightFinger0
                            {
                                OFFSET  -2.044650  -2.323490   3.252850
                                CHANNELS 3 Zrotation Xrotation Yrotation
                                JOINT RightFinger01
                                {
                                    OFFSET  -3.088130   0.000000   0.000000
                                    CHANNELS 3 Zrotation Xrotation Yrotation
                                    JOINT RightFinger02
                                    {
                                        OFFSET  -2.639460   0.000000   0.000000
                                        CHANNELS 3 Zrotation Xrotation Yrotation
                                        End Site
                                        {
                                            OFFSET  -2.582190   0.000000   0.000000
                                        }
                                    }
                                }
                            }
                            JOINT RightFinger1
                            {
                                OFFSET  -8.364480   0.000000   3.252850
                                CHANNELS 3 Zrotation Xrotation Yrotation
                                JOINT RightFinger11
                                {
                                    OFFSET  -4.646930   0.000000   0.000000
                                    CHANNELS 3 Zrotation Xrotation Yrotation
                                    JOINT RightFinger12
                                    {
                                        OFFSET  -2.323470   0.000000   0.000000
                                        CHANNELS 3 Zrotation Xrotation Yrotation
                                        End Site
                                        {
                                            OFFSET  -2.273050   0.000000   0.000000
                                        }
                                    }
                                }
                            }
                            JOINT RightFinger2
                            {
                                OFFSET  -8.364480   0.000000   1.078090
                                CHANNELS 3 Zrotation Xrotation Yrotation
                                JOINT RightFinger21
                                {
                                    OFFSET  -5.111610   0.000000   0.000000
                                    CHANNELS 3 Zrotation Xrotation Yrotation
                                    JOINT RightFinger22
                                    {
                                        OFFSET  -2.788160   0.000000   0.000000
                                        CHANNELS 3 Zrotation Xrotation Yrotation
                                        End Site
                                        {
                                            OFFSET  -2.727660   0.000000   0.000000
                                        }
                                    }
                                }
                            }
                            JOINT RightFinger3
                            {
                                OFFSET  -7.899780   0.000000  -1.078090
                                CHANNELS 3 Zrotation Xrotation Yrotation
                                JOINT RightFinger31
                                {
                                    OFFSET  -4.646920   0.000000   0.000000
                                    CHANNELS 3 Zrotation Xrotation Yrotation
                                    JOINT RightFinger32
                                    {
                                        OFFSET  -2.323470   0.000000   0.000000
                                        CHANNELS 3 Zrotation Xrotation Yrotation
                                        End Site
                                        {
                                            OFFSET  -2.273050   0.000000   0.000000
                                        }
                                    }
                                }
                            }
                            JOINT RightFinger4
                            {
                                OFFSET  -7.435090   0.000000  -3.252850
                                CHANNELS 3 Zrotation Xrotation Yrotation
                                JOINT RightFinger41
                                {
                                    OFFSET  -3.717550   0.000000   0.000000
                                    CHANNELS 3 Zrotation Xrotation Yrotation
                                    JOINT RightFinger42
                                    {
                                        OFFSET  -1.858770   0.000000   0.000000
                                        CHANNELS 3 Zrotation Xrotation Yrotation
                                        End Site
                                        {
                                            OFFSET  -1.818440   0.000000   0.000000
                                        }
                                    }
                                }
                            }
                        }
                    }
                }
            }
        }
    }
    JOINT LeftHip
    {
        OFFSET   9.783010   0.000000   0.000000
        CHANNELS 3 Zrotation Xrotation Yrotation
        JOINT LeftKnee
        {
            OFFSET   0.000070 -41.789100   0.000028
            CHANNELS 3 Zrotation Xrotation Yrotation
            JOINT LeftAnkle
            {
                OFFSET   0.000087 -41.133200  -0.000100
                CHANNELS 3 Zrotation Xrotation Yrotation
                JOINT LeftToe
                {
                    OFFSET   0.000000  -6.358960  14.674500
                    CHANNELS 3 Zrotation Xrotation Yrotation
                    End Site
                    {
                        OFFSET   0.000000   0.000000   3.913200
                    }
                }
            }
        }
    }
    JOINT RightHip
    {
        OFFSET  -9.783020   0.000000   0.000000
        CHANNELS 3 Zrotation Xrotation Yrotation
        JOINT RightKnee
        {
            OFFSET   0.000044 -41.789100  -0.000870
            CHANNELS 3 Zrotation Xrotation Yrotation
            JOINT RightAnkle
            {
                OFFSET  -0.000090 -41.133200  -0.000245
                CHANNELS 3 Zrotation Xrotation Yrotation
                JOINT RightToe
                {
                    OFFSET   0.000000  -6.358960  14.674500
                    CHANNELS 3 Zrotation Xrotation Yrotation
                    End Site
                    {
                        OFFSET   0.000000   0.000000   3.913200
                    }
                }
            }
        }
    }
}
MOTION
Frames: 6
Frame Time:   0.016667
 -1.100450  89.409300   0.225310  -0.949301  -4.081420   0.946854   0.683551   4.031820   0.331937   1.348640   8.067260   0.617797  -1.269450  -0.882660  -0.012711  -2.081610  -1.787410   3.958690  -7.046110   1.567400   9.001610 -77.067800   9.924730  -1.134280  -0.433277   3.905110 -16.441500  12.497100  -2.251400  -2.946480  39.100700  31.342500 -51.731500 -32.130400   0.000000   0.000000 -11.067300   0.000000  -0.001394 -36.252100  -0.694297   0.946734 -29.665500  -0.009025   0.000463 -20.773600   0.000684   0.007357 -31.713000  -3.711680   5.962910 -47.859800  -0.001749  -0.000940 -31.874600   0.002613  -0.001258 -28.549000  -3.369270   6.163240 -39.583900   0.002533   0.001509 -26.362900   0.001323   0.001215 -36.679600  -4.202170   5.628120 -55.329100   0.001677  -0.002563 -36.849100  -0.004954  -0.002639   8.784020   3.081850   7.190000  69.085800   0.806434  -3.309000   2.568600  -2.461360  21.476200 -15.305400  -1.427920   2.110830 -43.993400  40.774800  79.471600  28.509000   0.006853  -0.003650   9.254480   0.003052   0.000826  34.417200  -0.900045  -1.313830  28.168100   0.002676   0.001628  19.717700   0.001296  -0.008236  33.814900  -3.637870  -5.399750  50.980100   0.000456  -0.000368  33.952700   0.002391  -0.000170  34.820300  -4.715300  -6.740620  52.647500  -0.003190   0.001615  35.063200   0.003157   0.007149  35.624200  -4.979910  -6.907850  53.887600   0.004422   0.000158  35.889100  -0.007217   0.000119   4.762600   6.551730   0.417924  -0.026467   1.185500  15.601400  -4.451290  -3.440430   0.402391  -0.000000   0.000000  -0.000000  -1.843080   6.881040  -4.216100   1.247210   0.185192 -12.442700  -0.482107  -2.451820  -1.585300  -0.000000   0.000000  -0.000000
 -1.100450  89.409200   0.220390  -0.948061  -4.100620   0.959774   0.680967   4.049710   0.331926   1.343380   8.103040   0.617781  -1.269530  -0.866423  -0.012721  -2.082770  -1.754730   3.959410  -7.048700   1.551930   9.006160 -77.064700   9.964320  -1.147510  -0.438104   3.871280 -16.436000  12.484800  -2.261260  -2.956900  39.099300  31.336900 -51.748800 -32.130200   0.000000   0.000027 -11.067100   0.000000  -0.001423 -36.261400  -0.687751   0.937480 -29.673000  -0.009039   0.000463 -20.773500   0.000692   0.007348 -31.726800  -3.711680   5.962910 -47.880600  -0.001749  -0.000943 -31.888500   0.002604  -0.001260 -28.549000  -3.369260   6.163230 -39.604300   0.002534   0.001522 -26.376500   0.001324   0.001225 -36.688000  -4.202220   5.628110 -55.341900   0.001677  -0.002562 -36.857600  -0.004954  -0.002641   8.784100   3.069430   7.209890  69.080000   0.854530  -3.283860   2.584800  -2.459820  21.505100 -15.270900  -1.386650   2.123940 -44.011300  40.788400  79.541000  28.468200   0.006843  -0.003657   9.234090   0.003048   0.000810  34.404800  -0.852662  -1.245440  28.157100   0.002673   0.001628  19.710000   0.001300  -0.008244  33.785900  -3.637550  -5.407630  50.937000   0.000482  -0.000365  33.924000   0.002383  -0.000170  34.801400  -4.673300  -6.686010  52.612000  -0.003187   0.001623  35.039600   0.003140   0.007123  35.601600  -4.935880  -6.853330  53.846100   0.004420   0.000170  35.861600  -0.007222   0.000129   4.762370   6.566810   0.417648  -0.027063   1.183500  15.603800  -4.451990  -3.432520   0.391013  -0.000000   0.000000  -0.000000  -1.843570   6.881600  -4.211300   1.247260   0.226269 -12.447700  -0.478950  -2.467050  -1.596910   0.000000   0.000000   0.000000
 -1.100460  89.409200   0.212108  -0.946500  -4.134490   0.973568   0.678174   4.081450   0.331811   1.337690   8.166500   0.617387  -1.269620  -0.839517  -0.012748  -2.084550  -1.700450   3.960080  -7.053740   1.529420   9.010690 -77.059800  10.013200  -1.169960  -0.443725   3.834740 -16.430300  12.461500  -2.271100  -2.975720  39.103100  31.341900 -51.782400 -32.129900   0.000000   0.000067 -11.066900   0.000000  -0.001477 -36.270700  -0.681205   0.928225 -29.680500  -0.009074   0.000460 -20.773300   0.000711   0.007327 -31.740500  -3.711680   5.962910 -47.901400  -0.001749  -0.000951 -31.902400   0.002580  -0.001266 -28.548900  -3.369250   6.163200 -39.624800   0.002535   0.001558 -26.390100   0.001324   0.001251 -36.696500  -4.202320   5.628090 -55.354700   0.001678  -0.002559 -36.866200  -0.004953  -0.002645   8.781960   3.048200   7.246260  69.049100   0.936151  -3.249670   2.619500  -2.450400  21.624400 -15.197700  -1.313560   2.157650 -44.030900  40.794800  79.613200  28.413600   0.006816  -0.003664   9.206810   0.003040   0.000779  34.370800  -0.776357  -1.135800  28.128000   0.002671   0.001627  19.689600   0.001309  -0.008265  33.720200  -3.637170  -5.425460  50.839000   0.000549  -0.000360  33.858800   0.002362  -0.000167  34.771900  -4.600760  -6.590610  52.555700  -0.003180   0.001641  35.002100   0.003097   0.007060  35.542700  -4.863160  -6.768440  53.745800   0.004412   0.000200  35.794800  -0.007233   0.000155   4.762030   6.595800   0.417384  -0.029295   1.178660  15.610600  -4.453230  -3.419680   0.371066   0.000000   0.000000   0.000000  -1.844180   6.885350  -4.202740   1.247340   0.267340 -12.457300  -0.473848  -2.482280  -1.608520  -0.000000   0.000000  -0.000000
 -1.100620  89.409500   0.205161  -0.945907  -4.163910   0.974601   0.677925   4.110050   0.330743   1.337190   8.223680   0.614930  -1.269590  -0.819185  -0.012796  -2.086520  -1.659160   3.958110  -7.060930   1.516710   9.005400 -77.061600  10.021000  -1.186710  -0.453815   3.831230 -16.448000  12.434300  -2.259710  -2.997910  39.122900  31.382000 -51.824400 -32.130800   0.000043   0.000085 -11.067000   0.000000  -0.001533 -36.268700  -0.684426   0.932702 -29.678800  -0.009129   0.000452 -20.773200   0.000739   0.007293 -31.735400  -3.711680   5.962860 -47.896200  -0.001749  -0.000963 -31.897200   0.002543  -0.001274 -28.548900  -3.369230   6.163160 -39.612200   0.002537   0.001614 -26.381700   0.001325   0.001293 -36.687000  -4.202470   5.628050 -55.340500   0.001679  -0.002554 -36.856800  -0.004953  -0.002653   8.776890   3.026300   7.284770  68.988600   1.022150  -3.238560   2.657940  -2.423560  21.841000 -15.107800  -1.227600   2.207080 -43.984200  40.759600  79.579100  28.404400   0.006775  -0.003647   9.202220   0.003028   0.000749  34.316200  -0.731281  -1.072670  28.082700   0.002672   0.001622  19.657900   0.001321  -0.008297  33.630200  -3.638710  -5.449730  50.705100   0.000651  -0.000356  33.769600   0.002326  -0.000162  34.743600  -4.543910  -6.516030  52.507700  -0.003171   0.001664  34.970200   0.003033   0.006964  35.443400  -4.822000  -6.736940  53.591500   0.004399   0.000244  35.692000  -0.007249   0.000194   4.765130   6.625690   0.419136  -0.033460   1.171280  15.621200  -4.454640  -3.409770   0.352559  -0.000000   0.000000  -0.000000  -1.842660   6.916680  -4.194820   1.247940   0.243139 -12.467400  -0.471636  -2.466560  -1.606010   0.000000   0.000000   0.000000
 -1.100760  89.410500   0.198420  -0.945282  -4.198840   0.974787   0.677841   4.142570   0.328995   1.337020   8.288690   0.611091  -1.269440  -0.797298  -0.012848  -2.086700  -1.614650   3.951820  -7.065550   1.511060   8.995210 -77.074700  10.025500  -1.208150  -0.470483   3.830220 -16.476800  12.410500  -2.238250  -3.013630  39.142500  31.426500 -51.861700 -32.134600   0.000111   0.000100 -11.067300   0.000000  -0.001589 -36.266500  -0.691334   0.942194 -29.677200  -0.009199   0.000444 -20.773100   0.000777   0.007250 -31.729800  -3.711690   5.962770 -47.888800  -0.001749  -0.000978 -31.891500   0.002496  -0.001285 -28.548900  -3.369210   6.163110 -39.599600   0.002539   0.001686 -26.373300   0.001327   0.001346 -36.674000  -4.202630   5.628010 -55.320900   0.001681  -0.002547 -36.843700  -0.004952  -0.002662   8.762080   3.011270   7.321820  68.886100   1.074620  -3.236510   2.699380  -2.357490  22.198900 -14.996400  -1.173420   2.275580 -43.953900  40.704900  79.529600  28.395200   0.006722  -0.003592   9.197620   0.003014   0.000710  34.244800  -0.668699  -0.983750  28.023200   0.002673   0.001616  19.616200   0.001336  -0.008340  33.520000  -3.642230  -5.479380  50.541500   0.000777  -0.000351  33.660600   0.002281  -0.000155  34.736400  -4.471010  -6.414290  52.480600  -0.003159   0.001690  34.952100   0.002953   0.006847  35.334200  -4.750500  -6.664770  53.416500   0.004382   0.000300  35.575400  -0.007269   0.000244   4.771560   6.663060   0.424109  -0.039545   1.162760  15.637500  -4.456040  -3.400940   0.333836  -0.000000   0.000000  -0.000000  -1.839780   6.965110  -4.186600   1.248530   0.218938 -12.480200  -0.466489  -2.444170  -1.590020  -0.000000   0.000000   0.000000
 -1.100740  89.412100   0.192830  -0.947071  -4.242860   0.960685   0.677799   4.180560   0.328181   1.336780   8.364690   0.609293  -1.266740  -0.771082  -0.012895  -2.081790  -1.561480   3.936320  -7.059670   1.515720   8.980750 -77.101400  10.038100  -1.243480  -0.482979   3.847780 -16.497800  12.403700  -2.214420  -3.015620  39.148100  31.444000 -51.874200 -32.143900   0.000160   0.000127 -11.071300   0.000000  -0.001640 -36.268000  -0.702047   0.956929 -29.678500  -0.009280   0.000438 -20.774500   0.000826   0.007200 -31.729300  -3.711700   5.962640 -47.885400  -0.001749  -0.000995 -31.891000   0.002441  -0.001297 -28.548800  -3.369180   6.163060 -39.599900   0.002542   0.001770 -26.373500   0.001328   0.001408 -36.669000  -4.202780   5.627980 -55.313400   0.001683  -0.002541 -36.838700  -0.004951  -0.002672   8.731630   3.008940   7.345570  68.729900   1.071380  -3.246170   2.746160  -2.238920  22.754900 -14.830100  -1.188980   2.331450 -44.073900  40.630400  79.514100  28.243900   0.006663  -0.003477   9.121980   0.003003   0.000659  34.167000  -0.554767  -0.818390  27.957400   0.002673   0.001610  19.570200   0.001356  -0.008395  33.397800  -3.647050  -5.512240  50.360100   0.000919  -0.000345  33.539800   0.002230  -0.000146  34.771500  -4.358460  -6.246870  52.497900  -0.003145   0.001715  34.966000   0.002861   0.006715  35.255500  -4.597610  -6.470170  53.271800   0.004362   0.000367  35.479000  -0.007295   0.000302   4.779510   6.709680   0.433317  -0.047847   1.155050  15.659700  -4.457080  -3.394500   0.316461   0.000000   0.000000   0.000000  -1.837120   7.003530  -4.178610   1.248820   0.223690 -12.499200  -0.451942  -2.435620  -1.552580   0.000000   0.000000   0.000000
